<svg width="1000" height="1000" viewBox="0 0 1000 1000" fill="none" xmlns="http://www.w3.org/2000/svg">
<rect width="1000" height="1000" rx="200" fill="black"/>
<path fill-rule="evenodd" clip-rule="evenodd" d="M764.732 345.303C749.488 319.217 731.068 296.331 710.301 276.747L415.395 449.077L415.918 549.782L480.647 588.511L388.698 642.242L323.718 603.354C323.197 603.042 322.878 602.482 322.874 601.876L321.801 396.69C321.797 396.07 322.125 395.497 322.659 395.184L717.648 164.371C731.785 173.522 745.401 183.608 758.395 194.602C792.157 223.168 821.719 257.863 845.302 298.222C956.741 488.927 892.483 733.863 701.778 845.302C578.779 917.177 433.219 915.965 315.468 854.878L417.426 795.298C494.638 816.871 580.121 808.31 654.697 764.731C800.904 679.295 850.168 491.51 764.732 345.303ZM691.451 148.799C572.519 84.1115 423.642 81.4081 298.222 154.698C147.875 242.553 76.1191 413.382 107.087 575.196C115.399 618.633 131.114 661.42 154.698 701.778C179.543 744.296 211.023 780.529 247.059 809.931C260.35 820.774 274.261 830.689 288.686 839.647L683.138 609.148C683.672 608.836 683.999 608.262 683.996 607.643L682.879 394.137C682.876 393.518 682.543 392.948 682.005 392.641L622.706 358.814L529.665 413.184L589.833 447.506L590.402 555.256L294.827 727.976C271.952 707.376 251.752 682.904 235.268 654.697C217.104 623.611 205.092 590.828 198.743 557.652C174.977 433.464 230.165 302.55 345.303 235.268C422.719 190.03 511.891 182.528 591.354 207.291L691.451 148.799Z" fill="#B0F127"/>
</svg>
